




                        BY-- [RAJ-- releaser]







General
Unique ID                        : 212228203869492069265460510168174529922 (0x9FA9AA50496349C1B91FA435D9238D82)
Complete name               :Jonah Hex 2010 HINDI BY [-=R@J=-].mkv
Format                           : Matroska
File size                        : 1.40 GiB
Duration                         : 1h 21mn
Overall bit rate                 : 2 464 Kbps
Encoded date                     : UTC 2011-03-07 10:23:00
Writing application              : mkvmerge v2.2.0 ('Turn It On Again') built on Mar  4 2008 13:20:25
Writing library                  : libebml v0.7.7 + libmatroska v0.8.1

Video
ID                               : 1
Format                           : AVC
Format/Info                      : Advanced Video Codec
Format profile                   : High@L4.1
Format settings, CABAC           : Yes
Format settings, ReFrames        : 8 frames
Codec ID                         : V_MPEG4/ISO/AVC
Duration                         : 1h 21mn
Bit rate                         : 2 208 Kbps
Width                            : 1 280 pixels
Height                           : 528 pixels
Display aspect ratio             : 2.40:1
Frame rate                       : 23.976 fps
Color space                      : YUV
Chroma subsampling               : 4:2:0
Bit depth                        : 8 bits
Scan type                        : Progressive
Bits/(Pixel*Frame)               : 0.136
Stream size                      : 1.23 GiB (88%)
Title                            : Ripper BY {-=R@J=-}
Writing library                  : x264 core 98 r1649 c54c47d
Encoding settings                : cabac=1 / ref=8 / deblock=1:-4:-4 / analyse=0x3:0x113 / me=umh / subme=9 / psy=1 / psy_rd=0.20:0.00 / mixed_ref=1 / me_range=32 / chroma_me=1 / trellis=1 / 8x8dct=1 / cqm=0 / deadzone=21,11 / fast_pskip=0 / chroma_qp_offset=-1 / threads=3 / sliced_threads=0 / nr=0 / decimate=0 / interlaced=0 / constrained_intra=0 / bframes=4 / b_pyramid=2 / b_adapt=2 / b_bias=0 / direct=1 / weightb=1 / weightp=2 / keyint=250 / keyint_min=25 / scenecut=40 / intra_refresh=0 / rc_lookahead=40 / rc=2pass / mbtree=1 / bitrate=2208 / ratetol=1.0 / qcomp=0.60 / qpmin=10 / qpmax=51 / qpstep=4 / cplxblur=20.0 / qblur=0.5 / ip_ratio=1.40 / aq=1:1.00

Audio
ID                               : 2
Format                           : AC-3
Format/Info                      : Audio Coding 3
Mode extension                   : CM (complete main)
Codec ID                         : A_AC3
Duration                         : 1h 21mn
Bit rate mode                    : Constant
Bit rate                         : 256 Kbps
Channel(s)                       : 2 channels
Channel positions                : Front: L R
Sampling rate                    : 48.0 KHz
Bit depth                        : 16 bits
Compression mode                 : Lossy
Delay relative to video          : 2ms
Stream size                      : 149 MiB (10%)
Title                            : Hindi by Raj
Language                         : Hindi

